<svg width="30" height="30" viewBox="0 0 30 30" fill="none" xmlns="http://www.w3.org/2000/svg">
<path d="M5.41667 0C3.98008 0 2.60233 0.570683 1.5865 1.5865C0.570683 2.60233 0 3.98008 0 5.41667V24.5833C0 26.0199 0.570683 27.3977 1.5865 28.4135C2.60233 29.4293 3.98008 30 5.41667 30H24.5833C26.0199 30 27.3977 29.4293 28.4135 28.4135C29.4293 27.3977 30 26.0199 30 24.5833V5.41667C30 3.98008 29.4293 2.60233 28.4135 1.5865C27.3977 0.570683 26.0199 0 24.5833 0H5.41667ZM2.5 5.41667C2.5 3.80667 3.80667 2.5 5.41667 2.5H24.5833C26.1933 2.5 27.5 3.80667 27.5 5.41667V24.5833C27.5 25.3569 27.1927 26.0987 26.6457 26.6457C26.0987 27.1927 25.3569 27.5 24.5833 27.5H5.41667C4.64312 27.5 3.90125 27.1927 3.35427 26.6457C2.80729 26.0987 2.5 25.3569 2.5 24.5833V5.41667ZM23.8 10.4667C23.9228 10.3522 24.0213 10.2142 24.0896 10.0609C24.158 9.90756 24.1947 9.74204 24.1977 9.5742C24.2006 9.40637 24.1697 9.23965 24.1069 9.084C24.044 8.92836 23.9504 8.78697 23.8317 8.66827C23.713 8.54957 23.5716 8.456 23.416 8.39313C23.2603 8.33026 23.0936 8.29939 22.9258 8.30235C22.758 8.30531 22.5924 8.34204 22.4391 8.41036C22.2858 8.47868 22.1478 8.57719 22.0333 8.7L11.6617 19.06L7.96667 15.3667C7.72971 15.1459 7.4163 15.0257 7.09246 15.0314C6.76863 15.0371 6.45965 15.1683 6.23063 15.3973C6.00161 15.6263 5.87042 15.9353 5.86471 16.2591C5.85899 16.583 5.9792 16.8964 6.2 17.1333L10.775 21.71C11.0094 21.9441 11.3271 22.0756 11.6583 22.0756C11.9896 22.0756 12.3073 21.9441 12.5417 21.71L23.7983 10.4683L23.8 10.4667Z" fill="#ED1B24"/>
</svg>
