<svg width="22" height="22" viewBox="0 0 22 22" fill="none" xmlns="http://www.w3.org/2000/svg">
<path fill-rule="evenodd" clip-rule="evenodd" d="M0.916687 2.60149C0.916687 2.15465 1.0942 1.7261 1.41016 1.41014C1.72613 1.09417 2.15468 0.916659 2.60152 0.916659H19.3967C19.6181 0.916297 19.8375 0.959616 20.0422 1.04414C20.2468 1.12866 20.4328 1.25272 20.5895 1.40922C20.7462 1.56572 20.8704 1.75158 20.9552 1.95617C21.0399 2.16076 21.0835 2.38005 21.0834 2.60149V19.3967C21.0836 19.6181 21.0402 19.8375 20.9555 20.0422C20.8709 20.2469 20.7468 20.4329 20.5902 20.5895C20.4336 20.7462 20.2477 20.8704 20.0431 20.9552C19.8384 21.0399 19.6191 21.0834 19.3976 21.0833H2.60152C2.38019 21.0833 2.16102 21.0397 1.95655 20.955C1.75208 20.8703 1.5663 20.7461 1.40984 20.5895C1.25338 20.433 1.12929 20.2471 1.04467 20.0426C0.960058 19.8381 0.916567 19.6189 0.916687 19.3976V2.60149ZM8.89902 8.60566H11.6298V9.97699C12.0239 9.18866 13.0323 8.47916 14.5475 8.47916C17.4524 8.47916 18.1409 10.0494 18.1409 12.9305V18.2673H15.2011V13.5868C15.2011 11.946 14.8069 11.0202 13.8059 11.0202C12.4172 11.0202 11.8397 12.0184 11.8397 13.5868V18.2673H8.89902V8.60566ZM3.85735 18.1417H6.79802V8.47916H3.85735V18.1408V18.1417ZM7.21877 5.32766C7.22432 5.57944 7.17951 5.8298 7.08699 6.06403C6.99447 6.29826 6.85609 6.51166 6.67998 6.69169C6.50387 6.87172 6.29358 7.01476 6.06144 7.11242C5.8293 7.21007 5.57999 7.26038 5.32815 7.26038C5.0763 7.26038 4.82699 7.21007 4.59485 7.11242C4.36271 7.01476 4.15242 6.87172 3.97631 6.69169C3.8002 6.51166 3.66182 6.29826 3.5693 6.06403C3.47678 5.8298 3.43198 5.57944 3.43752 5.32766C3.4484 4.83344 3.65237 4.36313 4.00575 4.01745C4.35912 3.67177 4.83381 3.47821 5.32815 3.47821C5.82248 3.47821 6.29717 3.67177 6.65054 4.01745C7.00392 4.36313 7.20789 4.83344 7.21877 5.32766Z" fill="white"/>
</svg>
