<svg width="147" height="46" viewBox="0 0 147 46" fill="none" xmlns="http://www.w3.org/2000/svg">
<path d="M20.8438 36H14.6914V7.5625H20.8438V36ZM31.9961 24.4961H19.2031V19.5547H31.9961V24.4961ZM33.3438 12.5234H19.2031V7.5625H33.3438V12.5234ZM46.1367 36.3906C43.9102 36.3906 42.0026 35.9284 40.4141 35.0039C38.8385 34.0794 37.6276 32.8424 36.7812 31.293C35.9479 29.7435 35.5312 28.0312 35.5312 26.1562V25.3945C35.5312 23.2852 35.9284 21.4102 36.7227 19.7695C37.5299 18.1159 38.6758 16.8203 40.1602 15.8828C41.6445 14.9453 43.4154 14.4766 45.4727 14.4766C47.5169 14.4766 49.2357 14.9062 50.6289 15.7656C52.0221 16.625 53.0768 17.8359 53.793 19.3984C54.5091 20.9479 54.8672 22.7708 54.8672 24.8672V27.3672H38.0117V23.4023H49.0664V22.9336C49.0664 22.2044 48.9362 21.5599 48.6758 21C48.4154 20.4401 48.0182 20.0039 47.4844 19.6914C46.9635 19.3789 46.2799 19.2227 45.4336 19.2227C44.4701 19.2227 43.6953 19.4961 43.1094 20.043C42.5234 20.5898 42.0938 21.3255 41.8203 22.25C41.5599 23.1745 41.4297 24.2227 41.4297 25.3945V26.1562C41.4297 27.237 41.6315 28.1875 42.0352 29.0078C42.4388 29.8281 43.0182 30.4727 43.7734 30.9414C44.5286 31.3971 45.4401 31.625 46.5078 31.625C47.5104 31.625 48.4479 31.4427 49.3203 31.0781C50.1927 30.7005 50.9349 30.1146 51.5469 29.3203L54.3984 32.582C53.7344 33.5326 52.7057 34.4049 51.3125 35.1992C49.9323 35.9935 48.207 36.3906 46.1367 36.3906ZM63.7148 36H57.7969V6H63.7148V36ZM61.293 24.8086C61.293 22.8034 61.6185 21.026 62.2695 19.4766C62.9336 17.9271 63.8646 16.7096 65.0625 15.8242C66.2604 14.9258 67.6602 14.4766 69.2617 14.4766C70.6549 14.4766 71.8724 14.75 72.9141 15.2969C73.9688 15.8307 74.7891 16.7031 75.375 17.9141C75.974 19.112 76.2734 20.7201 76.2734 22.7383V36H70.3555V22.6992C70.3555 21.8138 70.2253 21.1237 69.9648 20.6289C69.7174 20.1211 69.3464 19.7695 68.8516 19.5742C68.3698 19.3659 67.7773 19.2617 67.0742 19.2617C66.293 19.2617 65.6354 19.3984 65.1016 19.6719C64.5677 19.9323 64.1315 20.3099 63.793 20.8047C63.4674 21.2995 63.2331 21.8854 63.0898 22.5625C62.9466 23.2266 62.875 23.9492 62.875 24.7305L61.293 24.8086ZM91.7227 21.918C91.7227 20.9674 91.4883 20.2122 91.0195 19.6523C90.5508 19.0924 89.8021 18.8125 88.7734 18.8125C88.1875 18.8125 87.6797 18.9102 87.25 19.1055C86.8203 19.3008 86.4948 19.5807 86.2734 19.9453C86.0521 20.2969 85.9414 20.7331 85.9414 21.2539H80.043C80.043 20.0039 80.4141 18.8711 81.1562 17.8555C81.8984 16.8268 82.9466 16.0065 84.3008 15.3945C85.6549 14.7826 87.25 14.4766 89.0859 14.4766C90.7266 14.4766 92.1914 14.7565 93.4805 15.3164C94.7695 15.8633 95.7852 16.6901 96.5273 17.7969C97.2695 18.9036 97.6406 20.2904 97.6406 21.957V30.7852C97.6406 32.0352 97.7122 33.0247 97.8555 33.7539C98.0117 34.4831 98.2266 35.1211 98.5 35.668V36H92.5625C92.276 35.401 92.0612 34.6523 91.918 33.7539C91.7878 32.8555 91.7227 31.944 91.7227 31.0195V21.918ZM92.5234 26.4688H89.5156C88.0833 26.4688 87.0482 26.7812 86.4102 27.4062C85.7721 28.0182 85.4531 28.7604 85.4531 29.6328C85.4531 30.2969 85.6875 30.8438 86.1562 31.2734C86.625 31.7031 87.2565 31.918 88.0508 31.918C88.8711 31.918 89.5742 31.7617 90.1602 31.4492C90.7591 31.1237 91.2148 30.7396 91.5273 30.2969C91.8529 29.8411 92.0091 29.4245 91.9961 29.0469L93.5195 31.5859C93.3112 32.1068 93.0312 32.6471 92.6797 33.207C92.3411 33.7669 91.9049 34.2878 91.3711 34.7695C90.8372 35.2513 90.1862 35.6419 89.418 35.9414C88.6628 36.2409 87.7708 36.3906 86.7422 36.3906C85.4141 36.3906 84.2031 36.1237 83.1094 35.5898C82.0156 35.043 81.1497 34.2943 80.5117 33.3438C79.8737 32.3802 79.5547 31.2799 79.5547 30.043C79.5547 27.8294 80.375 26.1172 82.0156 24.9062C83.6562 23.6823 86.0977 23.0703 89.3398 23.0703H92.4844L92.5234 26.4688Z" fill="black"/>
<path d="M113.55 16C113.324 16 113.148 15.9377 113.023 15.813C112.899 15.677 112.836 15.4957 112.836 15.269V4.661C112.836 4.423 112.893 4.24167 113.006 4.117C113.131 3.99233 113.307 3.93 113.533 3.93C113.76 3.93 113.93 3.99233 114.043 4.117C114.168 4.24167 114.23 4.423 114.23 4.661V14.776H119.806C120.01 14.776 120.169 14.8327 120.282 14.946C120.396 15.048 120.452 15.1953 120.452 15.388C120.452 15.5807 120.396 15.7337 120.282 15.847C120.169 15.949 120.01 16 119.806 16H113.55ZM122.781 16C122.554 16 122.379 15.9377 122.254 15.813C122.129 15.677 122.067 15.4957 122.067 15.269V4.661C122.067 4.423 122.124 4.24167 122.237 4.117C122.362 3.99233 122.537 3.93 122.764 3.93C122.991 3.93 123.161 3.99233 123.274 4.117C123.399 4.24167 123.461 4.423 123.461 4.661V14.776H129.037C129.241 14.776 129.4 14.8327 129.513 14.946C129.626 15.048 129.683 15.1953 129.683 15.388C129.683 15.5807 129.626 15.7337 129.513 15.847C129.4 15.949 129.241 16 129.037 16H122.781ZM135.868 16.153C134.689 16.153 133.681 15.9037 132.842 15.405C132.003 14.9063 131.357 14.198 130.904 13.28C130.462 12.362 130.241 11.2683 130.241 9.999C130.241 9.047 130.366 8.197 130.615 7.449C130.876 6.68967 131.244 6.04933 131.72 5.528C132.207 4.99533 132.802 4.58733 133.505 4.304C134.208 4.00933 134.995 3.862 135.868 3.862C136.571 3.862 137.239 3.964 137.874 4.168C138.509 4.36067 139.058 4.64967 139.523 5.035C139.67 5.14833 139.767 5.27867 139.812 5.426C139.869 5.562 139.874 5.698 139.829 5.834C139.795 5.95867 139.727 6.06633 139.625 6.157C139.534 6.23633 139.421 6.276 139.285 6.276C139.149 6.276 138.996 6.21933 138.826 6.106C138.418 5.77733 137.97 5.53367 137.483 5.375C136.996 5.21633 136.469 5.137 135.902 5.137C135.007 5.137 134.247 5.32967 133.624 5.715C133.001 6.089 132.53 6.63867 132.213 7.364C131.896 8.08933 131.737 8.96767 131.737 9.999C131.737 11.0303 131.896 11.9143 132.213 12.651C132.53 13.3763 133.001 13.9317 133.624 14.317C134.247 14.691 135.007 14.878 135.902 14.878C136.457 14.878 136.984 14.7987 137.483 14.64C137.982 14.47 138.441 14.2207 138.86 13.892C139.03 13.7787 139.183 13.7277 139.319 13.739C139.455 13.739 139.568 13.7787 139.659 13.858C139.75 13.9373 139.812 14.0393 139.846 14.164C139.891 14.2887 139.891 14.419 139.846 14.555C139.812 14.691 139.727 14.81 139.591 14.912C139.115 15.32 138.554 15.6317 137.908 15.847C137.273 16.051 136.593 16.153 135.868 16.153Z" fill="black"/>
</svg>
