<svg width="129" height="19" viewBox="0 0 129 19" fill="none" xmlns="http://www.w3.org/2000/svg">
<path d="M9.2 18.225C7.93333 18.225 6.75 18 5.65 17.55C4.55 17.0833 3.58333 16.4417 2.75 15.625C1.93333 14.7917 1.29167 13.825 0.825 12.725C0.375 11.625 0.15 10.4417 0.15 9.175C0.15 7.89167 0.375 6.70833 0.825 5.625C1.29167 4.525 1.93333 3.56667 2.75 2.75C3.58333 1.93333 4.54167 1.3 5.625 0.849999C6.725 0.383332 7.91667 0.149999 9.2 0.149999C10.4833 0.149999 11.6667 0.383332 12.75 0.849999C13.85 1.3 14.8083 1.93333 15.625 2.75C16.4417 3.56667 17.075 4.525 17.525 5.625C17.9917 6.70833 18.225 7.89167 18.225 9.175C18.225 10.4417 17.9917 11.625 17.525 12.725C17.075 13.825 16.4417 14.7917 15.625 15.625C14.8083 16.4417 13.85 17.0833 12.75 17.55C11.6667 18 10.4833 18.225 9.2 18.225ZM9.2 17.125C10.3167 17.125 11.35 16.925 12.3 16.525C13.2667 16.125 14.1 15.5667 14.8 14.85C15.5167 14.1167 16.075 13.275 16.475 12.325C16.875 11.3583 17.075 10.3083 17.075 9.175C17.075 8.04167 16.875 7 16.475 6.05C16.075 5.08333 15.5167 4.24167 14.8 3.525C14.1 2.80833 13.2667 2.25 12.3 1.85C11.35 1.45 10.3167 1.25 9.2 1.25C8.06667 1.25 7.01667 1.45 6.05 1.85C5.1 2.25 4.26667 2.80833 3.55 3.525C2.85 4.24167 2.3 5.08333 1.9 6.05C1.5 7 1.3 8.04167 1.3 9.175C1.3 10.3083 1.5 11.3583 1.9 12.325C2.3 13.275 2.85 14.1167 3.55 14.85C4.26667 15.5667 5.1 16.125 6.05 16.525C7.01667 16.925 8.06667 17.125 9.2 17.125ZM9.525 14.575C7.90833 14.575 6.63333 14.075 5.7 13.075C4.78333 12.075 4.325 10.75 4.325 9.1C4.325 7.46667 4.78333 6.175 5.7 5.225C6.63333 4.275 7.90833 3.8 9.525 3.8C10.0917 3.8 10.6583 3.89167 11.225 4.075C11.7917 4.25833 12.3 4.51667 12.75 4.85C12.9 4.95 13 5.075 13.05 5.225C13.1 5.375 13.1083 5.525 13.075 5.675C13.0417 5.80833 12.975 5.925 12.875 6.025C12.775 6.125 12.65 6.18333 12.5 6.2C12.35 6.21667 12.1833 6.16667 12 6.05C11.6 5.78333 11.2 5.59167 10.8 5.475C10.4 5.35833 10.0083 5.3 9.625 5.3C8.525 5.3 7.66667 5.63333 7.05 6.3C6.43333 6.96667 6.125 7.90833 6.125 9.125C6.125 10.3417 6.43333 11.3083 7.05 12.025C7.66667 12.725 8.525 13.075 9.625 13.075C10.0083 13.075 10.4 13.0167 10.8 12.9C11.2 12.7833 11.6083 12.5833 12.025 12.3C12.2417 12.1667 12.4333 12.1333 12.6 12.2C12.7833 12.25 12.9167 12.3583 13 12.525C13.0833 12.675 13.1083 12.85 13.075 13.05C13.0417 13.2333 12.9333 13.3833 12.75 13.5C12.3 13.85 11.7833 14.1167 11.2 14.3C10.6333 14.4833 10.075 14.575 9.525 14.575ZM29.1061 18.175C28.7561 18.175 28.4811 18.0833 28.2811 17.9C28.0977 17.7 28.0061 17.4167 28.0061 17.05V1.5C28.0061 1.13333 28.0977 0.858332 28.2811 0.675C28.4811 0.474999 28.7644 0.374999 29.1311 0.374999H38.2061C38.4894 0.374999 38.7061 0.449999 38.8561 0.599999C39.0061 0.749999 39.0811 0.958333 39.0811 1.225C39.0811 1.50833 39.0061 1.725 38.8561 1.875C38.7061 2.025 38.4894 2.1 38.2061 2.1H30.0561V8.25H37.6811C37.9644 8.25 38.1811 8.325 38.3311 8.475C38.4977 8.625 38.5811 8.83333 38.5811 9.1C38.5811 9.38333 38.4977 9.6 38.3311 9.75C38.1811 9.9 37.9644 9.975 37.6811 9.975H30.0561V17.05C30.0561 17.8 29.7394 18.175 29.1061 18.175ZM46.4385 18.225C45.1551 18.225 44.0468 17.975 43.1135 17.475C42.1968 16.9583 41.4801 16.2333 40.9635 15.3C40.4635 14.3667 40.2135 13.25 40.2135 11.95C40.2135 10.6833 40.4635 9.58333 40.9635 8.65C41.4635 7.7 42.1468 6.95833 43.0135 6.425C43.8968 5.89167 44.9135 5.625 46.0635 5.625C46.8801 5.625 47.6135 5.76667 48.2635 6.05C48.9135 6.31667 49.4635 6.70833 49.9135 7.225C50.3801 7.74167 50.7301 8.36667 50.9635 9.1C51.2135 9.83333 51.3385 10.6583 51.3385 11.575C51.3385 11.8417 51.2635 12.0417 51.1135 12.175C50.9635 12.2917 50.7468 12.35 50.4635 12.35H41.7635V11.025H49.9885L49.5885 11.35C49.5885 10.45 49.4551 9.69167 49.1885 9.075C48.9218 8.44167 48.5301 7.95833 48.0135 7.625C47.5135 7.29167 46.8801 7.125 46.1135 7.125C45.2635 7.125 44.5385 7.325 43.9385 7.725C43.3551 8.10833 42.9135 8.65 42.6135 9.35C42.3135 10.0333 42.1635 10.8333 42.1635 11.75V11.9C42.1635 13.4333 42.5301 14.6 43.2635 15.4C44.0135 16.2 45.0718 16.6 46.4385 16.6C47.0051 16.6 47.5635 16.525 48.1135 16.375C48.6801 16.225 49.2301 15.975 49.7635 15.625C49.9968 15.475 50.2051 15.4083 50.3885 15.425C50.5885 15.425 50.7468 15.4833 50.8635 15.6C50.9801 15.7 51.0551 15.8333 51.0885 16C51.1385 16.15 51.1218 16.3167 51.0385 16.5C50.9718 16.6833 50.8301 16.8417 50.6135 16.975C50.0635 17.375 49.4135 17.6833 48.6635 17.9C47.9135 18.1167 47.1718 18.225 46.4385 18.225ZM55.2691 18.175C54.9358 18.175 54.6858 18.0833 54.5191 17.9C54.3525 17.7167 54.2691 17.4583 54.2691 17.125V1.225C54.2691 0.891666 54.3525 0.641666 54.5191 0.474999C54.6858 0.291666 54.9358 0.2 55.2691 0.2C55.5858 0.2 55.8358 0.291666 56.0191 0.474999C56.2025 0.641666 56.2941 0.891666 56.2941 1.225V8.55H55.9691C56.3191 7.58333 56.8858 6.85833 57.6691 6.375C58.4691 5.875 59.3858 5.625 60.4191 5.625C61.3858 5.625 62.1858 5.8 62.8191 6.15C63.4691 6.5 63.9525 7.03333 64.2691 7.75C64.5858 8.45 64.7441 9.34167 64.7441 10.425V17.125C64.7441 17.4583 64.6525 17.7167 64.4691 17.9C64.3025 18.0833 64.0608 18.175 63.7441 18.175C63.4108 18.175 63.1525 18.0833 62.9691 17.9C62.8025 17.7167 62.7191 17.4583 62.7191 17.125V10.55C62.7191 9.41667 62.4941 8.59167 62.0441 8.075C61.6108 7.54167 60.9108 7.275 59.9441 7.275C58.8275 7.275 57.9358 7.625 57.2691 8.325C56.6191 9.00833 56.2941 9.925 56.2941 11.075V17.125C56.2941 17.825 55.9525 18.175 55.2691 18.175ZM72.3031 18.225C71.4698 18.225 70.7198 18.0667 70.0531 17.75C69.4031 17.4167 68.8865 16.9667 68.5031 16.4C68.1198 15.8333 67.9281 15.2 67.9281 14.5C67.9281 13.6 68.1531 12.8917 68.6031 12.375C69.0698 11.8583 69.8281 11.4917 70.8781 11.275C71.9448 11.0583 73.3948 10.95 75.2281 10.95H76.3531V12.275H75.2531C73.9031 12.275 72.8365 12.3417 72.0531 12.475C71.2865 12.5917 70.7448 12.8 70.4281 13.1C70.1281 13.4 69.9781 13.825 69.9781 14.375C69.9781 15.0583 70.2115 15.6167 70.6781 16.05C71.1615 16.4833 71.8115 16.7 72.6281 16.7C73.2948 16.7 73.8781 16.5417 74.3781 16.225C74.8948 15.9083 75.2948 15.475 75.5781 14.925C75.8781 14.375 76.0281 13.7417 76.0281 13.025V10.175C76.0281 9.14167 75.8198 8.4 75.4031 7.95C74.9865 7.48333 74.3031 7.25 73.3531 7.25C72.7698 7.25 72.1865 7.325 71.6031 7.475C71.0198 7.625 70.4031 7.86667 69.7531 8.2C69.5198 8.31667 69.3198 8.35833 69.1531 8.325C68.9865 8.275 68.8531 8.18333 68.7531 8.05C68.6531 7.91667 68.5948 7.76667 68.5781 7.6C68.5615 7.41667 68.5948 7.24167 68.6781 7.075C68.7781 6.90833 68.9281 6.775 69.1281 6.675C69.8615 6.30833 70.5865 6.04167 71.3031 5.875C72.0198 5.70833 72.7031 5.625 73.3531 5.625C74.4031 5.625 75.2698 5.8 75.9531 6.15C76.6365 6.48333 77.1448 7 77.4781 7.7C77.8115 8.38333 77.9781 9.26667 77.9781 10.35V17.125C77.9781 17.4583 77.8948 17.7167 77.7281 17.9C77.5781 18.0833 77.3531 18.175 77.0531 18.175C76.7365 18.175 76.4948 18.0833 76.3281 17.9C76.1615 17.7167 76.0781 17.4583 76.0781 17.125V15.175H76.3031C76.1698 15.8083 75.9115 16.35 75.5281 16.8C75.1615 17.25 74.7031 17.6 74.1531 17.85C73.6031 18.1 72.9865 18.225 72.3031 18.225ZM89.5053 18C89.1719 18 88.9136 17.9083 88.7303 17.725C88.5469 17.525 88.4553 17.2583 88.4553 16.925V1.325C88.4553 0.974999 88.5386 0.708332 88.7053 0.524998C88.8886 0.341666 89.1469 0.249999 89.4803 0.249999C89.8136 0.249999 90.0636 0.341666 90.2303 0.524998C90.4136 0.708332 90.5053 0.974999 90.5053 1.325V16.2H98.7053C99.0053 16.2 99.2386 16.2833 99.4053 16.45C99.5719 16.6 99.6553 16.8167 99.6553 17.1C99.6553 17.3833 99.5719 17.6083 99.4053 17.775C99.2386 17.925 99.0053 18 98.7053 18H89.5053ZM103.079 18C102.746 18 102.488 17.9083 102.304 17.725C102.121 17.525 102.029 17.2583 102.029 16.925V1.325C102.029 0.974999 102.113 0.708332 102.279 0.524998C102.463 0.341666 102.721 0.249999 103.054 0.249999C103.388 0.249999 103.638 0.341666 103.804 0.524998C103.988 0.708332 104.079 0.974999 104.079 1.325V16.2H112.279C112.579 16.2 112.813 16.2833 112.979 16.45C113.146 16.6 113.229 16.8167 113.229 17.1C113.229 17.3833 113.146 17.6083 112.979 17.775C112.813 17.925 112.579 18 112.279 18H103.079ZM122.325 18.225C120.592 18.225 119.109 17.8583 117.875 17.125C116.642 16.3917 115.692 15.35 115.025 14C114.375 12.65 114.05 11.0417 114.05 9.175C114.05 7.775 114.234 6.525 114.6 5.425C114.984 4.30833 115.525 3.36667 116.225 2.6C116.942 1.81667 117.817 1.21667 118.85 0.799999C119.884 0.366666 121.042 0.149999 122.325 0.149999C123.359 0.149999 124.342 0.299999 125.275 0.599999C126.209 0.883333 127.017 1.30833 127.7 1.875C127.917 2.04167 128.059 2.23333 128.125 2.45C128.209 2.65 128.217 2.85 128.15 3.05C128.1 3.23333 128 3.39167 127.85 3.525C127.717 3.64167 127.55 3.7 127.35 3.7C127.15 3.7 126.925 3.61667 126.675 3.45C126.075 2.96667 125.417 2.60833 124.7 2.375C123.984 2.14167 123.209 2.025 122.375 2.025C121.059 2.025 119.942 2.30833 119.025 2.875C118.109 3.425 117.417 4.23333 116.95 5.3C116.484 6.36667 116.25 7.65833 116.25 9.175C116.25 10.6917 116.484 11.9917 116.95 13.075C117.417 14.1417 118.109 14.9583 119.025 15.525C119.942 16.075 121.059 16.35 122.375 16.35C123.192 16.35 123.967 16.2333 124.7 16C125.434 15.75 126.109 15.3833 126.725 14.9C126.975 14.7333 127.2 14.6583 127.4 14.675C127.6 14.675 127.767 14.7333 127.9 14.85C128.034 14.9667 128.125 15.1167 128.175 15.3C128.242 15.4833 128.242 15.675 128.175 15.875C128.125 16.075 128 16.25 127.8 16.4C127.1 17 126.275 17.4583 125.325 17.775C124.392 18.075 123.392 18.225 122.325 18.225Z" fill="black"/>
</svg>
