<svg width="24" height="30" viewBox="0 0 24 30" fill="none" xmlns="http://www.w3.org/2000/svg">
<path d="M7.87005 1.71387C8.08302 1.71402 8.29207 1.79296 8.47555 1.9425C8.65903 2.09204 8.81025 2.30674 8.91353 2.56435L10.3743 6.20241C10.4685 6.43719 10.52 6.70022 10.5241 6.96871C10.5283 7.23719 10.4851 7.50303 10.3982 7.74318L8.99114 11.6347C8.99114 11.6347 9.39886 14.5346 11.105 16.8945C12.8117 19.2544 14.901 19.8092 14.901 19.8092L17.7139 17.8631C17.8876 17.7428 18.0799 17.6831 18.2742 17.689C18.4684 17.6949 18.6586 17.7663 18.8284 17.8969L21.4669 19.9257C21.6528 20.0689 21.8077 20.2782 21.9155 20.5319C22.0233 20.7857 22.0801 21.0747 22.08 21.369V25.5586C22.08 27.6914 20.6473 29.233 19.186 28.5502C14.901 28.5502 9.20412 26.7048 6.25038 22.6208C3.29784 18.536 2.07169 11.1204 1.05865 6.96871C0.565567 4.94738 3.29916 1.71387 4.8417 1.71387H7.87005Z" fill="white" stroke="#ED1B24" stroke-width="2" stroke-linejoin="round"/>
</svg>
