<?xml version="1.0" standalone="no"?>
<!DOCTYPE svg PUBLIC "-//W3C//DTD SVG 20010904//EN"
 "http://www.w3.org/TR/2001/REC-SVG-20010904/DTD/svg10.dtd">
<svg version="1.0" xmlns="http://www.w3.org/2000/svg"
 width="301.000000pt" height="301.000000pt" viewBox="0 0 301.000000 301.000000"
 preserveAspectRatio="xMidYMid meet">
<metadata>
Created by potrace 1.14, written by Peter Selinger 2001-2017
</metadata>
<g transform="translate(0.000000,301.000000) scale(0.100000,-0.100000)"
fill="#000000" stroke="none">
<path d="M621 2475 l-64 -94 34 -53 c18 -29 77 -119 131 -200 54 -81 98 -152
98 -158 0 -5 4 -10 8 -10 4 0 16 -15 26 -32 11 -18 50 -79 88 -136 37 -57 68
-105 68 -108 0 -3 5 -10 11 -17 13 -15 202 -306 218 -335 16 -30 25 -28 49 11
12 17 39 59 62 91 22 32 39 62 38 65 -9 19 -84 127 -90 129 -5 2 -8 8 -8 12 0
12 -132 214 -142 218 -4 2 -8 8 -8 13 0 5 -27 50 -60 100 -33 50 -60 94 -60
99 0 5 -4 10 -8 12 -4 2 -41 55 -82 118 -41 63 -78 117 -82 118 -5 2 -8 8 -8
13 0 8 -148 239 -153 239 -1 0 -31 -43 -66 -95z"/>
<path d="M443 2213 c-32 -49 -59 -92 -58 -98 0 -5 8 -21 18 -35 18 -25 116
-174 216 -330 30 -47 95 -145 143 -218 48 -73 88 -137 88 -143 0 -5 4 -9 8 -9
5 0 19 -19 32 -42 13 -24 27 -45 30 -48 4 -3 9 -9 11 -15 2 -5 37 -61 78 -123
l73 -112 47 68 c87 130 89 134 73 140 -7 2 -12 8 -12 14 0 6 -11 26 -25 44
-14 18 -25 37 -25 42 0 6 -3 12 -7 14 -8 3 -61 80 -76 108 -4 8 -47 74 -95
147 -48 73 -132 201 -186 285 -55 84 -103 155 -108 156 -4 2 -8 8 -8 13 0 11
-72 123 -82 127 -5 2 -8 7 -8 12 0 12 -52 90 -61 90 -4 0 -34 -39 -66 -87z"/>
<path d="M1021 2268 c7 -13 15 -25 18 -28 4 -3 26 -37 50 -76 l44 -71 702 0
702 0 -29 51 c-17 28 -44 72 -61 99 l-30 47 -704 0 -704 0 12 -22z"/>
<path d="M300 2002 c-14 -20 -27 -39 -30 -42 -13 -13 -63 -96 -63 -105 0 -5
32 -58 71 -117 40 -59 72 -112 72 -118 0 -5 5 -10 10 -10 6 0 10 -7 10 -15 0
-8 4 -15 8 -15 4 0 16 -15 26 -32 11 -18 58 -91 104 -163 47 -71 117 -179 157
-240 39 -60 109 -167 155 -238 l83 -127 51 73 c89 128 88 108 7 230 -39 59
-71 111 -71 117 0 5 -4 10 -10 10 -5 0 -10 6 -10 14 0 8 -4 16 -8 18 -11 4
-122 176 -122 188 0 6 -4 10 -8 10 -5 0 -18 18 -31 40 -12 22 -27 40 -33 40
-6 0 -9 3 -5 6 3 4 -20 45 -51 93 -31 48 -61 94 -67 102 -16 25 -64 98 -114
172 -25 38 -56 85 -67 105 -12 20 -25 37 -30 39 -5 2 -20 -14 -34 -35z"/>
<path d="M1592 2020 l-412 -5 62 -95 63 -95 698 0 c383 0 697 3 697 6 0 3 -16
31 -35 63 -19 32 -35 61 -35 63 0 3 -9 17 -21 31 l-21 27 -291 5 c-161 3 -478
3 -705 0z"/>
<path d="M1358 1748 c-13 -3 -18 -6 -13 -7 6 -1 35 -42 65 -91 l55 -90 270 0
c149 -1 465 -2 702 -3 238 -1 433 0 433 2 0 8 -53 96 -68 114 -8 9 -12 17 -8
17 4 0 2 6 -4 13 -6 6 -17 21 -24 32 -14 19 -29 19 -699 20 -377 0 -696 -3
-709 -7z"/>
<path d="M1420 1374 c-30 -47 -59 -94 -65 -105 -5 -10 -13 -19 -17 -19 -5 0
-8 -4 -8 -10 0 -5 -39 -69 -88 -142 -102 -155 -183 -278 -286 -438 -41 -63
-79 -120 -85 -127 -6 -7 -11 -14 -11 -17 0 -2 -18 -32 -40 -65 -22 -33 -40
-62 -40 -64 0 -6 248 -3 253 3 10 9 107 161 107 166 0 3 5 10 11 17 9 11 110
163 315 478 108 165 250 384 258 397 6 9 -21 12 -121 12 l-128 0 -55 -86z"/>
<path d="M1802 1420 c-15 -21 -91 -137 -169 -257 -79 -120 -175 -267 -215
-328 -40 -60 -75 -114 -78 -120 -15 -29 -185 -281 -194 -287 -6 -4 -7 -8 -2
-8 5 0 1 -9 -9 -20 -18 -20 -17 -20 51 -21 177 -3 188 -2 202 17 8 11 52 77
98 149 171 264 209 322 264 405 31 47 59 93 63 103 3 9 11 17 17 17 5 0 10 5
10 11 0 6 13 29 29 52 62 90 202 309 198 313 -1 2 -56 5 -121 8 l-117 4 -27
-38z"/>
<path d="M2133 1393 c-21 -32 -41 -59 -45 -61 -5 -2 -8 -8 -8 -13 0 -5 -31
-55 -68 -111 -37 -57 -96 -146 -130 -198 -34 -52 -67 -102 -72 -110 -44 -65
-140 -215 -140 -217 0 -2 -4 -9 -10 -16 -16 -20 -190 -287 -187 -288 1 -1 57
-2 125 -4 l123 -3 27 42 c15 22 29 43 32 46 3 3 14 21 24 40 11 19 22 37 26
40 6 5 91 135 145 222 17 27 33 48 38 48 4 0 7 5 7 11 0 5 18 37 40 69 22 32
40 62 40 65 0 4 6 13 13 20 23 26 34 41 38 50 5 13 64 104 177 275 49 74 87
138 85 143 -2 4 -58 7 -123 7 l-120 0 -37 -57z"/>
</g>
</svg>
